<svg width="25" height="10" viewBox="0 0 155 41" fill="none" xmlns="http://www.w3.org/2000/svg">
  <path d="M0 0.728V39.928H22.064V32.032H8.4V0.728H0Z" fill="white"/>
  <path d="M64.027 20.328C64.027 9.016 54.955 0 43.531 0C32.107 0 23.035 9.016 23.035 20.328C23.035 31.64 32.107 40.656 43.531 40.656C54.955 40.656 64.027 31.64 64.027 20.328ZM55.403 20.328C55.403 27.104 50.195 32.48 43.531 32.48C36.867 32.48 31.659 27.104 31.659 20.328C31.659 13.552 36.867 8.176 43.531 8.176C50.195 8.176 55.403 13.552 55.403 20.328Z" fill="white"/>
  <path d="M107.11 10.136C103.918 3.808 97.31 0 89.414 0C78.158 0 68.918 9.128 68.918 20.328C68.918 31.528 77.934 40.656 89.358 40.656C100.558 40.656 108.734 32.256 108.734 21.28V18.144H88.35V25.2H99.718C98.654 29.68 94.622 32.76 89.414 32.76C82.694 32.76 77.43 27.216 77.43 20.328C77.43 13.384 82.694 7.952 89.358 7.952C93.894 7.952 97.534 10.024 99.494 13.832L107.11 10.136Z" fill="white"/>
  <path d="M154.261 20.328C154.261 9.016 145.189 0 133.765 0C122.341 0 113.269 9.016 113.269 20.328C113.269 31.64 122.341 40.656 133.765 40.656C145.189 40.656 154.261 31.64 154.261 20.328ZM145.637 20.328C145.637 27.104 140.429 32.48 133.765 32.48C127.101 32.48 121.893 27.104 121.893 20.328C121.893 13.552 127.101 8.176 133.765 8.176C140.429 8.176 145.637 13.552 145.637 20.328Z" fill="white"/>
</svg>
